<svg width="800" height="360" viewBox="0 0 800 360" fill="none" xmlns="http://www.w3.org/2000/svg">
  <rect width="800" height="360" fill="#F3F3F3"/>
  <g fill="#DD1F2A">
    <path d="M70 65h88c35 0 56 19 56 49 0 19-10 34-27 41 20 8 31 24 31 46 0 33-24 54-62 54H70V65Zm82 74c10 0 16-6 16-15s-6-15-16-15h-34v30h34Zm4 74c11 0 18-6 18-17s-7-17-18-17h-38v34h38Z"/>
    <path d="M244 65h76c42 0 67 20 67 54 0 22-10 39-29 48l35 88h-52l-28-75h-20v75h-49V65Zm73 79c14 0 22-8 22-20s-8-20-22-20h-24v40h24Z"/>
    <path d="M415 65h49v190h-49V65Zm58 95 59-95h54l-61 95 63 95h-56l-59-95Z"/>
    <path d="M614 65h130v43h-81v30h71v40h-71v34h84v43H614V65Z"/>
    <path d="M66 295h676v6H66z"/>
  </g>
</svg>


