<svg xmlns="http://www.w3.org/2000/svg" width="250" height="140" viewBox="0 55 250 140">
<!-- SVG created with Arrow, by QuiverAI (https://quiver.ai) -->
  <path d="m11.24 73.92c1.24-6.98 5.22-9.14 15.6-10.45s20.07 0.21 23.48 6.76c0.96 2.04-0.11 3.89 0 6.48s1.67 5.1 1.2 7.21-2.38 3.89-3.61 4.99c2 0.55 5.35 3 5.92 6.22-7.84 1.06-9.91 7.75-9.91 14.65 0 3.93 0.79 7.36 1.68 10.14-2.88 1.97-9.47 2.82-15.19 2.82-8.3 0-15.47-1.9-17.2-6.83-2.3-6.9-3.5-35.99-1.97-41.99zm16.14 10.87c0 0.99 0.89 0.89 2.35 0.89 3.68 0 5.14-1.37 5.14-4.16 0-2.18-1.46-3.41-3.97-3.41-2.77 0-3.52 0.34-3.52 1.81v4.87zm1.13 16.39c0 4.6 0.75 6.44 3.36 6.44 4.84 0 6.2-1.84 6.2-4.8 0-3.16-1.16-4.4-4.9-4.4-3.34 0-4.66 0.41-4.66 2.76z" fill="#D2232A"/>
  <path d="m52.9 74.98c0-4.96 2.17-7.85 7.21-8.67 6.05-0.99 8.35-1.4 14.17-1.4 9.43 0 11.97 2.42 14.07 9.01 1.87 6.21 2.97 21.14 2.97 30.4 0 14.72-5.31 27.14-23.5 27.14-13.43 0-21.08-8.65-21.08-20.34 0-8.92 3.96-12.43 11.17-12.43 6.05 0 8.35 3.72 8.35 6.51 0 1.94-0.51 2.86-0.24 5.18 0.24 1.94 0.99 3.4 2.41 3.4 3.1 0 3.17-6.03 2.7-13.17-0.41-5.66-1.3-11.5-1.64-15.82-3.74 0-5.27 0.82-9.38 0.82-4.87 0-7.21-3.75-7.21-10.63z" fill="#D2232A"/>
  <path d="m89.41 67.81c0-3.89 2.1-7.05 8.65-7.8 5.11-0.58 8.85-0.58 13.13-0.58 9.12 0 13.2 0.99 13.2 8.76 0 5.93-2.37 8.72-9.37 8.72-2.77 0-4.23-0.27-6.9-0.27-2.04 0-2.86 0.68-2.86 3.47 0 1.75 0.31 2.22 1.37 2.22h5.45c4.73 0 6.33 2.59 6.33 6.78 0 4.8-1.53 7.15-7.35 7.15h-3.98c-1.17 0-1.64 0.48-1.64 2.43 0 2.59 0.61 3.37 2.48 3.37 3.51 0 6.99-0.85 10.5-0.85 5.49 0 7.29 3.52 7.29 8.82 0 6.76-3 8.6-19.32 9.18-7.35 0.31-13.27-0.58-13.51-2.18 1.33-3.39 1.33-6.52 1.33-12.91 0-9.86-1.53-26.25-4.33-34.1-0.47-0.71-0.47-1.26-0.47-2.21z" fill="#D2232A"/>
  <path d="m125.3 61.31c4.8-1.78 9.34-2.49 14.65-2.49 14.24 0 23.93 7.22 23.93 19.15 0 7.16-2.77 12.59-7.21 16.24 1.9 3.72 8.12 9.9 8.12 15.1 0 5.7-6.86 9.8-11.21 9.8-4.73 0-6.43-4.17-8.53-10.34-1.97-5.47-4.07-8.76-6.18-10.35-0.54 2.79-0.27 5.42-0.27 9.98 0 5.46-2.57 9.72-8.13 9.72-1.69 0-3.39-0.07-4.42-0.61 1.43-2.29 2.11-4.3 2.11-8.09 0-5.71-2.76-9.5-6.98-11.27 0.86-3.23 0.49-8.23 0.01-15.62 4.83-3.16 5.82-8.62 5.82-12.1 0-2.62-0.54-5.04-1.71-7.29v-1.83zm12.48 14.85v6.58c0 0.99 0.47 1.06 1.56 1.06 4.25 0 6.05-1.47 6.05-4.56 0-2.92-1.77-5-4.67-5-2.05 0-2.94 0.68-2.94 1.92z" fill="#D2232A"/>
  <path d="m164.2 68.12c1.9-2.73 3.67-4.13 7.55-4.13 6.35 0 9.8 3.52 9.63 8.88-0.13 4.31-0.68 8.24-1.12 12.74l0.89 0.14c4.51-6.04 7.61-10.83 9.07-15.05 1.33-3.65 3.73-5.18 6.6-5.18 5.75 0 11.03 5.18 11.03 10.01 0 4.6-5.72 11.9-13.04 19.74 6.25 5.19 14.1 15.72 14.1 20.45 0 6.17-7.32 10.33-11.34 10.33-3.81 0-6.18-2.11-7.51-7.14-1.23-3.97-4.91-9.63-8.58-13.88-0.54 3.23-0.2 7.12-0.33 12.79 0 6.1-2.88 9.33-9.4 9.33-5.75 0-8.95-2.89-9.49-8.24 3.84-2.86 6.21-5.28 6.21-9.43 0-4.82-5.25-8.61-5.25-12.47 0-3.79 3.98-7.88 3.98-16.88 0-5.15-0.99-8.67-3-12.01z" fill="#D2232A"/>
  <path d="m205.7 65.66c1.9-2.25 3.4-3.24 14.5-3.58 3.91-0.2 4.8-0.2 8.54-0.2 7.62 0 9.99 1.77 9.99 8.96 0 5.46-2.87 7.88-9.12 7.88-1.87 0-3.9-0.2-6.41-0.2-2.3 0-3.02 0.82-3.02 3.41 0 1.53 0.47 2.35 2.07 2.35h5.05c5.31 0 6.64 2.49 6.64 6.35 0 5.53-2.27 7.71-8.29 7.71h-3.51c-1.66 0-2.03 0.75-2.03 2.46 0 2.49 0.75 3.65 3.02 3.65 3.74 0 5.07-0.81 10.35-0.81s6.24 4.08 6.24 7.97c0 6.24-2.77 8.15-13.02 9.14-3.74 0.41-5.77 0.48-9 0.48-3.3 0-5.97-0.27-7.2-0.89 0.96-2.18 1.5-3.31 1.5-5.63 0-5.97-9.89-14.75-9.89-19.58 0-4.82 8.5-12.39 8.5-19.81 0-4.14-2.13-7.13-4.91-9.66z" fill="#D2232A"/>
  <path d="m5.27 173.6c0-6.24 4.54-9.1 8.15-9.1 6.79 0 7.61 6.24 13.59 6.24 2.51 0 4.28-0.68 4.28-2.22 0-2.59-4.08-4.02-11.08-7.25-8.79-3.46-12.7-8.22-12.7-15.67 0-10.73 7.71-19.45 21.81-19.45 12.79 0 21.17 6.76 21.17 11.95 0 5.7-3.07 9.35-8.38 9.35-6.29 0-6.76-6.1-13.48-6.1-1.9 0-3.5 0.68-3.5 2.25 0 2.11 3 3.41 10.32 6.3 10.28 3.9 16.1 7.22 16.1 18.35 0 10.66-8.93 19.62-22.98 19.62-13.46 0-23.3-6.24-23.3-14.27z" fill="#D2232A"/>
  <path d="m52.82 131.8c1.46 0 3.97 3.32 13.34 3.32 6.75 0 10.73-0.99 14.11-2.9 2.67 1.23 3.9 4.03 3.9 7.18 0 5.53-2.54 8.86-8.56 8.86h-10.21c-1.23 0-1.98 0.99-1.98 2.46 0 1.46 0.47 2.18 1.64 2.18h5.18c5.31 0 6.37 2.72 6.37 6.31 0 4.73-1.8 7.39-7.29 7.39h-3.99c-1.46 0-1.8 0.92-1.8 2.32 0 2.32 0.85 3.48 2.65 3.48 4.25 0 6.55-0.75 10.03-0.75 5.49 0 7.86 3.45 7.86 8.41 0 6.83-2.44 8.87-8.69 9.49-4.97 0.61-7.37 0.68-11.65 0.68-7.95 0-13.57-1.3-15.61-5.49 5.07-4.89 7.04-9.65 7.04-15.82 0-7.58-3.23-12.61-8.95-16.33v-1.87c4.73-2.32 7.1-6.51 7.1-11.9 0-2.49-0.49-4.2-0.49-6.28v-0.74z" fill="#D2232A"/>
  <path d="m84.92 130.5c4.35-2.32 8.3-3 13.79-3 12.38 0 23.75 5.53 23.75 19.2 0 7.51-2.54 12.54-7.44 16.8 2.7 4.53 8.05 11.69 8.05 14.85 0 5.29-7 8.88-10.95 8.88-5.18 0-7.41-5.03-9.35-10.49-1.8-4.63-3.6-8.88-5.36-8.88-0.75 0-0.75 0.85-0.75 3v6.88c0 6.1-3.1 9.09-8.45 9.09-0.75 0-1.5-0.07-2.25-0.34 0.89-1.78 1.26-3.56 1.26-6.58 0-5.26-2.3-8.71-7.2-10.17 0.75-2.93 1.64-4.39 1.64-7.48 0-3.36-1.23-6.26-2.25-10.65 5.21-2.01 6.44-6.2 6.44-11.46 0-3.35-0.54-5.94-0.93-8.35v-1.3zm11.2 15.17v5.39c0 1.16 0.24 1.37 1.47 1.37 4.83 0 6.84-2.01 6.84-4.5 0-2.45-1.77-4.43-4.64-4.43-2.47 0-3.67 0.58-3.67 2.17z" fill="#D2232A"/>
  <path d="m113.8 127c2.14-5.03 4.54-6.2 10.03-6.2 5.31 0 7.28 3.1 8.34 11.71 1.8 14.46 3.97 25.33 5.1 25.33 1.23 0 2.69-12.26 4.96-30.37 0.75-4.7 3.85-6.47 9.03-6.47 7.07 0 10.91 3.72 10.91 9.18 0 7.09-9.4 38.04-13.51 45.88-2.37 3.76-5.34 4.85-10.89 4.85-6.76 0-9.86-1.74-12.26-8.89-1.34-4.15-3.34-8.34-3.34-9.94 2.47-4.31 3.01-7 3.01-13.03 0-9.85-4.9-19.07-11.38-20.38v-1.67z" fill="#D2232A"/>
  <path d="m164.5 127.9c6.25 1.53 9.86 2.83 9.86 7.53 0 2.79-3.44 10.3-4.19 11.29-1.43 1.06-2.89 1.19-4.69 1.19-1.76 0-2.99-0.27-4.32-0.85l3.34-19.16zm-3.78 22.05c2.51 0.48 3.97 0.68 5.43 0.68s2.63-0.2 3.79-0.54c-0.34 2.32-0.48 4.87-0.48 7.59 0 8.41 3.48 15.9 3.48 23.58 0 5.46-2.97 8.42-8.18 8.42-7 0-9.57-2.89-9.57-9.44 0-4.46 0.1-9.78 0.54-13.46l4.99-16.83z" fill="#D2232A"/>
  <path d="m172.8 158.7c0-16.66 6.86-30.3 22.25-30.3 11.1 0 17.96 7.29 17.96 14.46 0 5.59-3.74 9.04-8.78 9.04-5.18 0-5.66-3.89-6.65-5.94-0.82-1.33-1.64-1.6-3.1-1.6-3.38 0-4.2 6.51-4.2 13.15 0 7.61 1.87 12.3 5.18 12.3 2.3 0 2.77-2.32 3.32-4.6 0.82-2.49 2.35-3.92 6.98-3.92 6.36 0 9.33 3.45 9.33 9.15 0 7.71-7.07 15.74-19.42 15.74-14.87 0-22.87-10.33-22.87-27.48z" fill="#D2232A"/>
  <path d="m209.1 129c1.46-2.32 3.83-3.62 14.73-3.89 4.08-0.2 5.31-0.34 9.59-0.34 7.13 0 10.1 1.98 10.1 8.96 0 5.46-2.87 8.19-9.12 8.19-1.87 0-4.17-0.34-6.68-0.34-2.3 0-3.12 0.68-3.12 3 0 1.78 0.47 2.49 2.07 2.49h5.04c5.28 0 6.81 2.59 6.81 7.09 0 5.22-2.76 7.85-8.78 7.85h-3.07c-1.46 0-1.93 0.85-1.93 2.7 0 2.39 0.75 3.11 3.01 3.11 4.25 0 6.12-0.85 10.03-0.85 5.49 0 6.91 4.09 6.91 8.42 0 6.3-2.97 8.41-9.05 8.82-5.28 0.68-7.45 0.68-11.4 0.68-4.41 0-9.56-0.68-12.53-1.91 4.35-5.6 5.51-8.22 5.51-13.68 0-6.71-3.34-10.16-10.37-11.16v-2.18c6.42-1.6 8.79-5.35 8.79-11.99 0-5.7-2.77-11.16-6.54-14.11v-0.86z" fill="#D2232A"/>
</svg>
